<svg width="81" height="91" viewBox="0 0 111 77" fill="none" xmlns="http://www.w3.org/2000/svg">
<g id="bi:apple" clip-path="url(#clip0_2_19)">
<g id="Group">
<path id="Vector" d="M77.5751 0.0385338C77.3392 -0.144341 68.8408 0.110721 61.4454 5.67878C54.0501 11.242 55.1878 17.6234 55.3543 17.787C55.5208 17.9507 65.8993 18.2057 72.5246 11.7329C79.1499 5.2601 77.811 0.226221 77.5751 0.0385338ZM100.566 56.5036C100.233 56.0416 84.4363 50.565 85.9071 40.0352C87.3778 29.5007 97.5274 26.6132 97.6869 26.3003C97.8465 25.9875 93.5452 22.4985 88.9873 20.7323C85.6408 19.4871 81.9369 18.7736 78.144 18.6437C77.3947 18.6292 74.7932 18.1865 69.4444 19.2019C65.9201 19.8708 57.9767 22.0365 55.7914 22.1231C53.5991 22.2097 47.0779 19.611 40.0641 18.9228C35.5755 18.3212 30.8164 19.5532 27.4101 20.5013C24.0107 21.4445 17.5449 24.1299 13.0217 31.2668C8.49843 38.399 10.8641 49.6987 12.5569 53.2118C14.2496 56.7202 16.8928 62.4711 21.3883 66.6676C25.3843 71.4031 30.6846 74.69 32.8976 75.8065C35.1107 76.923 41.3544 77.6642 45.6834 76.129C49.1661 74.6467 55.4514 73.7949 57.9351 73.8575C60.4117 73.92 65.2957 74.5986 70.2977 76.4514C74.259 77.3995 78.0052 77.0048 81.7584 75.9461C85.5116 74.8825 90.9437 70.8497 97.2846 62.6732C99.6919 58.8713 100.788 56.8164 100.566 56.5036Z" fill="black"/>
<path id="Vector_2" d="M77.5751 0.0385338C77.3392 -0.144341 68.8408 0.110721 61.4454 5.67878C54.0501 11.242 55.1878 17.6234 55.3543 17.787C55.5208 17.9507 65.8993 18.2057 72.5246 11.7329C79.1499 5.2601 77.811 0.226221 77.5751 0.0385338ZM100.566 56.5036C100.233 56.0416 84.4363 50.565 85.9071 40.0352C87.3778 29.5007 97.5274 26.6132 97.6869 26.3003C97.8465 25.9875 93.5452 22.4985 88.9873 20.7323C85.6408 19.4871 81.9369 18.7736 78.144 18.6437C77.3947 18.6292 74.7932 18.1865 69.4444 19.2019C65.9201 19.8708 57.9767 22.0365 55.7914 22.1231C53.5991 22.2097 47.0779 19.611 40.0641 18.9228C35.5755 18.3212 30.8164 19.5532 27.4101 20.5013C24.0107 21.4445 17.5449 24.1299 13.0217 31.2668C8.49843 38.399 10.8641 49.6987 12.5569 53.2118C14.2496 56.7202 16.8928 62.4711 21.3883 66.6676C25.3843 71.4031 30.6846 74.69 32.8976 75.8065C35.1107 76.923 41.3544 77.6642 45.6834 76.129C49.1661 74.6467 55.4514 73.7949 57.9351 73.8575C60.4117 73.92 65.2957 74.5986 70.2977 76.4514C74.259 77.3995 78.0052 77.0048 81.7584 75.9461C85.5116 74.8825 90.9437 70.8497 97.2846 62.6732C99.6919 58.8713 100.788 56.8164 100.566 56.5036Z" fill="black"/>
</g>
</g>
<defs>
<clipPath id="clip0_2_19">
<rect width="81" height="91" fill="white"/>
</clipPath>
</defs>
</svg>
