<svg width="81" height="91" viewBox="0 0 133 91" fill="none" xmlns="http://www.w3.org/2000/svg">
<g id="flat-color-icons:google">
<path id="Vector" d="M120.839 38.074H116.375V37.9166H66.5V53.0833H97.8187C93.2496 61.9122 80.9721 68.25 66.5 68.25C48.1377 68.25 33.25 58.0637 33.25 45.5C33.25 32.9363 48.1377 22.75 66.5 22.75C74.976 22.75 82.6872 24.9378 88.5586 28.5114L104.233 17.7867C94.3358 11.4755 81.0967 7.58331 66.5 7.58331C35.8961 7.58331 11.0833 24.5605 11.0833 45.5C11.0833 66.4395 35.8961 83.4166 66.5 83.4166C97.1039 83.4166 121.917 66.4395 121.917 45.5C121.917 42.9577 121.534 40.476 120.839 38.074Z" fill="#FFC107"/>
<path id="Vector_2" d="M17.4729 27.8517L35.68 36.9877C40.6066 28.6422 52.5378 22.75 66.5 22.75C74.976 22.75 82.6872 24.9378 88.5586 28.5114L104.233 17.7867C94.3358 11.4755 81.0967 7.58331 66.5 7.58331C45.2145 7.58331 26.7552 15.8055 17.4729 27.8517Z" fill="#FF3D00"/>
<path id="Vector_3" d="M66.5 83.4167C80.8141 83.4167 93.8204 79.6686 103.654 73.5735L86.5027 63.6431C80.7519 66.6355 73.7248 68.2539 66.5 68.25C52.0861 68.25 39.8474 61.9615 35.2367 53.1857L17.1653 62.7123C26.3368 74.9916 44.9623 83.4167 66.5 83.4167Z" fill="#4CAF50"/>
<path id="Vector_4" d="M120.839 38.074H116.375V37.9167H66.5V53.0834H97.8187C95.6331 57.2853 91.6962 60.9571 86.4943 63.645L86.5026 63.6413L103.654 73.5716C102.44 74.3262 121.917 64.4584 121.917 45.5C121.917 42.9577 121.534 40.4761 120.839 38.074Z" fill="#1976D2"/>
</g>
</svg>
